<svg xmlns="http://www.w3.org/2000/svg" width="306.751" height="305.918" viewBox="0 0 306.751 305.918">
  <g id="그룹_6913" data-name="그룹 6913" transform="translate(1457.375 721.464)">
    <path id="패스_1528" data-name="패스 1528" d="M213.8,274.359a153.933,153.933,0,0,0,32.074-24.448l-15.3-65.58Z" transform="translate(-1441.739 -709.233)" fill="#6166ff"/>
    <path id="패스_1529" data-name="패스 1529" d="M230.569,184.332,213.8,274.361a154,154,0,0,0,32.075-24.448Z" transform="translate(-1441.739 -709.232)" fill="#6166ff"/>
    <path id="패스_1531" data-name="패스 1531" d="M144.786,1.164A154.271,154.271,0,0,0,117.444,3.6L160.83,307.082a153.033,153.033,0,0,0,17.985-2.962l37.863-203.232a19.158,19.158,0,0,1,18.4-15.644q.219-.006.436-.006a19.16,19.16,0,0,1,18.654,14.807L282.606,221.9A153.425,153.425,0,0,0,144.786,1.164" transform="translate(-1448.786 -722.628)" fill="#6166ff"/>
    <path id="패스_1533" data-name="패스 1533" d="M93.209,45.623,50.421,188.46a19.16,19.16,0,0,1-18.354,13.662H8.048A153.557,153.557,0,0,0,130,302.977Z" transform="translate(-1456.787 -719.377)" fill="#6166ff"/>
    <path id="패스_1534" data-name="패스 1534" d="M18.395,164.8,58.162,32.04A153.092,153.092,0,0,0,0,152.283Q0,158.6.511,164.8Z" transform="translate(-1457.375 -720.37)" fill="#6166ff"/>
    <path id="패스_1535" data-name="패스 1535" d="M58.162,32.039A153.092,153.092,0,0,0,0,152.281q0,6.32.511,12.513H18.395Z" transform="translate(-1457.375 -720.37)" fill="#6166ff"/>
  </g>
</svg>
